<?xml version="1.0" encoding="UTF-8"?>
<svg version="1.1" xmlns="http://www.w3.org/2000/svg" width="16" height="16">
<path d="M0 0 C2.5 1.5 2.5 1.5 4 4 C4.791013 8.02098277 4.62153384 10.96411027 2.5 14.5 C-1.03588973 16.62153384 -3.97901723 16.791013 -8 16 C-10.5 14.5 -10.5 14.5 -12 12 C-12.791013 7.97901723 -12.62153384 5.03588973 -10.5 1.5 C-6.96411027 -0.62153384 -4.02098277 -0.791013 0 0 Z " fill="#0D0000" transform="translate(12,0)"/>
<path d="M0 0 C0.99 0.33 1.98 0.66 3 1 C3 1.66 3 2.32 3 3 C3.66 3 4.32 3 5 3 C5.33 2.01 5.66 1.02 6 0 C6.66 0 7.32 0 8 0 C8 2.64 8 5.28 8 8 C7.34 7.01 6.68 6.02 6 5 C5.67 5.66 5.34 6.32 5 7 C4.34 7 3.68 7 3 7 C2.67 6.34 2.34 5.68 2 5 C1.34 5.99 0.68 6.98 0 8 C0 5.36 0 2.72 0 0 Z " fill="#E80000" transform="translate(4,4)"/>
</svg>
